# xmcd
#
# Track frame offsets:
#	150
#	2411
#	17070
#	28021
#	44801
#	61233
#	82547
#	97292
#	122323
#	138015
#	166027
#
# Disc length: 2558 seconds
#
# Revision: 1
# Processed by: cddbd v1.5.2PL0 Copyright (c) Steve Scherf et al.
# Submitted via: audiograbber 1.83.01
#
DISCID=7709fc0b
DTITLE=Old Crow Medicine Show - Live At The Ryman
DYEAR=2019
DGENRE=Country
TTITLE0=Welcome to the Ryman
TTITLE1=Tell It To Me
TTITLE2=Shout Maountain Music
TTITLE3=Take Em Away
TTITLE4=Brushy Mountain Conjugal Trailer
TTITLE5=CC Rider
TTITLE6=Sixteen Tons
TTITLE7=Methamphetamine
TTITLE8=Louisiana Woman, Mississippi Man
TTITLE9=Wagon Wheel
TTITLE10=Will the Circle Be Unbroken
EXTD=
EXTT0=
EXTT1=
EXTT2=
EXTT3=
EXTT4=
EXTT5=
EXTT6=
EXTT7=
EXTT8=
EXTT9=
EXTT10=
PLAYORDER=
